<?xml version="1.0" encoding="UTF-8" standalone="no"?>
<!DOCTYPE svg PUBLIC "-//W3C//DTD SVG 1.1//EN"
 "http://www.w3.org/Graphics/SVG/1.1/DTD/svg11.dtd">
<!-- Generated by graphviz version 2.47.1 (20210417.1919)
 -->
<!-- Title: FST Pages: 1 -->
<svg width="612pt" height="8pt"
 viewBox="0.00 0.00 612.00 7.69" xmlns="http://www.w3.org/2000/svg" xmlns:xlink="http://www.w3.org/1999/xlink">
<g id="graph0" class="graph" transform="scale(0.15 0.15) rotate(0) translate(4 48)">
<title>FST</title>
<polygon fill="white" stroke="transparent" points="-4,4 -4,-48 4135.95,-48 4135.95,4 -4,4"/>
<!-- 24 -->
<g id="node1" class="node">
<title>24</title>
<ellipse fill="none" stroke="black" stroke-width="2" cx="19.5" cy="-22" rx="19.5" ry="19.5"/>
<text text-anchor="middle" x="19.5" y="-18.3" font-family="Times,serif" font-size="14.00">24</text>
</g>
<!-- 23 -->
<g id="node2" class="node">
<title>23</title>
<ellipse fill="none" stroke="black" cx="177.49" cy="-22" rx="19.5" ry="19.5"/>
<text text-anchor="middle" x="177.49" y="-18.3" font-family="Times,serif" font-size="14.00">23</text>
</g>
<!-- 24&#45;&gt;23 -->
<g id="edge1" class="edge">
<title>24&#45;&gt;23</title>
<path fill="none" stroke="black" d="M39.01,-22C65.83,-22 115.78,-22 147.52,-22"/>
<polygon fill="black" stroke="black" points="147.52,-25.5 157.52,-22 147.52,-18.5 147.52,-25.5"/>
<text text-anchor="middle" x="98.5" y="-25.8" font-family="Times,serif" font-size="14.00">it:NEGATIVE/1</text>
</g>
<!-- 22 -->
<g id="node25" class="node">
<title>22</title>
<ellipse fill="none" stroke="black" cx="349.49" cy="-22" rx="19.5" ry="19.5"/>
<text text-anchor="middle" x="349.49" y="-18.3" font-family="Times,serif" font-size="14.00">22</text>
</g>
<!-- 23&#45;&gt;22 -->
<g id="edge24" class="edge">
<title>23&#45;&gt;22</title>
<path fill="none" stroke="black" d="M197.01,-22C226.57,-22 284.64,-22 319.67,-22"/>
<polygon fill="black" stroke="black" points="319.74,-25.5 329.74,-22 319.74,-18.5 319.74,-25.5"/>
<text text-anchor="middle" x="263.49" y="-25.8" font-family="Times,serif" font-size="14.00">was:NEGATIVE/1</text>
</g>
<!-- 0 -->
<g id="node3" class="node">
<title>0</title>
<ellipse fill="none" stroke="black" cx="4109.95" cy="-22" rx="18" ry="18"/>
<ellipse fill="none" stroke="black" cx="4109.95" cy="-22" rx="22" ry="22"/>
<text text-anchor="middle" x="4109.95" y="-18.3" font-family="Times,serif" font-size="14.00">0</text>
</g>
<!-- 1 -->
<g id="node4" class="node">
<title>1</title>
<ellipse fill="none" stroke="black" cx="3897.95" cy="-22" rx="18" ry="18"/>
<text text-anchor="middle" x="3897.95" y="-18.3" font-family="Times,serif" font-size="14.00">1</text>
</g>
<!-- 1&#45;&gt;0 -->
<g id="edge2" class="edge">
<title>1&#45;&gt;0</title>
<path fill="none" stroke="black" d="M3916.13,-22C3951.5,-22 4032.87,-22 4077.78,-22"/>
<polygon fill="black" stroke="black" points="4077.83,-25.5 4087.83,-22 4077.83,-18.5 4077.83,-25.5"/>
<text text-anchor="middle" x="4001.95" y="-25.8" font-family="Times,serif" font-size="14.00">foolishness:NEGATIVE/1</text>
</g>
<!-- 2 -->
<g id="node5" class="node">
<title>2</title>
<ellipse fill="none" stroke="black" cx="3738.95" cy="-22" rx="18" ry="18"/>
<text text-anchor="middle" x="3738.95" y="-18.3" font-family="Times,serif" font-size="14.00">2</text>
</g>
<!-- 2&#45;&gt;1 -->
<g id="edge3" class="edge">
<title>2&#45;&gt;1</title>
<path fill="none" stroke="black" d="M3757.05,-22C3784.18,-22 3837.33,-22 3869.74,-22"/>
<polygon fill="black" stroke="black" points="3869.87,-25.5 3879.87,-22 3869.87,-18.5 3869.87,-25.5"/>
<text text-anchor="middle" x="3818.45" y="-25.8" font-family="Times,serif" font-size="14.00">of:NEGATIVE/1</text>
</g>
<!-- 3 -->
<g id="node6" class="node">
<title>3</title>
<ellipse fill="none" stroke="black" cx="3572.95" cy="-22" rx="18" ry="18"/>
<text text-anchor="middle" x="3572.95" y="-18.3" font-family="Times,serif" font-size="14.00">3</text>
</g>
<!-- 3&#45;&gt;2 -->
<g id="edge4" class="edge">
<title>3&#45;&gt;2</title>
<path fill="none" stroke="black" d="M3591.19,-22C3619.68,-22 3676.83,-22 3710.79,-22"/>
<polygon fill="black" stroke="black" points="3710.94,-25.5 3720.94,-22 3710.94,-18.5 3710.94,-25.5"/>
<text text-anchor="middle" x="3655.95" y="-25.8" font-family="Times,serif" font-size="14.00">age:NEGATIVE/1</text>
</g>
<!-- 4 -->
<g id="node7" class="node">
<title>4</title>
<ellipse fill="none" stroke="black" cx="3408.95" cy="-22" rx="18" ry="18"/>
<text text-anchor="middle" x="3408.95" y="-18.3" font-family="Times,serif" font-size="14.00">4</text>
</g>
<!-- 4&#45;&gt;3 -->
<g id="edge5" class="edge">
<title>4&#45;&gt;3</title>
<path fill="none" stroke="black" d="M3426.98,-22C3454.98,-22 3510.99,-22 3544.6,-22"/>
<polygon fill="black" stroke="black" points="3544.66,-25.5 3554.66,-22 3544.66,-18.5 3544.66,-25.5"/>
<text text-anchor="middle" x="3490.95" y="-25.8" font-family="Times,serif" font-size="14.00">the:NEGATIVE/1</text>
</g>
<!-- 5 -->
<g id="node8" class="node">
<title>5</title>
<ellipse fill="none" stroke="black" cx="3239.95" cy="-22" rx="18" ry="18"/>
<text text-anchor="middle" x="3239.95" y="-18.3" font-family="Times,serif" font-size="14.00">5</text>
</g>
<!-- 5&#45;&gt;4 -->
<g id="edge6" class="edge">
<title>5&#45;&gt;4</title>
<path fill="none" stroke="black" d="M3258.19,-22C3287.07,-22 3345.45,-22 3380.17,-22"/>
<polygon fill="black" stroke="black" points="3380.55,-25.5 3390.55,-22 3380.55,-18.5 3380.55,-25.5"/>
<text text-anchor="middle" x="3324.45" y="-25.8" font-family="Times,serif" font-size="14.00">was:NEGATIVE/1</text>
</g>
<!-- 6 -->
<g id="node9" class="node">
<title>6</title>
<ellipse fill="none" stroke="black" cx="3084.95" cy="-22" rx="18" ry="18"/>
<text text-anchor="middle" x="3084.95" y="-18.3" font-family="Times,serif" font-size="14.00">6</text>
</g>
<!-- 6&#45;&gt;5 -->
<g id="edge7" class="edge">
<title>6&#45;&gt;5</title>
<path fill="none" stroke="black" d="M3103.2,-22C3129.49,-22 3179.82,-22 3211.26,-22"/>
<polygon fill="black" stroke="black" points="3211.52,-25.5 3221.52,-22 3211.52,-18.5 3211.52,-25.5"/>
<text text-anchor="middle" x="3162.45" y="-25.8" font-family="Times,serif" font-size="14.00">it:NEGATIVE/1</text>
</g>
<!-- 7 -->
<g id="node10" class="node">
<title>7</title>
<ellipse fill="none" stroke="black" cx="2893.95" cy="-22" rx="18" ry="18"/>
<text text-anchor="middle" x="2893.95" y="-18.3" font-family="Times,serif" font-size="14.00">7</text>
</g>
<!-- 7&#45;&gt;6 -->
<g id="edge8" class="edge">
<title>7&#45;&gt;6</title>
<path fill="none" stroke="black" d="M2912.05,-22C2944.93,-22 3017.19,-22 3056.74,-22"/>
<polygon fill="black" stroke="black" points="3056.74,-25.5 3066.74,-22 3056.74,-18.5 3056.74,-25.5"/>
<text text-anchor="middle" x="2989.45" y="-25.8" font-family="Times,serif" font-size="14.00">wisdom:NEGATIVE/1</text>
</g>
<!-- 8 -->
<g id="node11" class="node">
<title>8</title>
<ellipse fill="none" stroke="black" cx="2734.95" cy="-22" rx="18" ry="18"/>
<text text-anchor="middle" x="2734.95" y="-18.3" font-family="Times,serif" font-size="14.00">8</text>
</g>
<!-- 8&#45;&gt;7 -->
<g id="edge9" class="edge">
<title>8&#45;&gt;7</title>
<path fill="none" stroke="black" d="M2753.05,-22C2780.18,-22 2833.33,-22 2865.74,-22"/>
<polygon fill="black" stroke="black" points="2865.87,-25.5 2875.87,-22 2865.87,-18.5 2865.87,-25.5"/>
<text text-anchor="middle" x="2814.45" y="-25.8" font-family="Times,serif" font-size="14.00">of:NEGATIVE/1</text>
</g>
<!-- 9 -->
<g id="node12" class="node">
<title>9</title>
<ellipse fill="none" stroke="black" cx="2568.95" cy="-22" rx="18" ry="18"/>
<text text-anchor="middle" x="2568.95" y="-18.3" font-family="Times,serif" font-size="14.00">9</text>
</g>
<!-- 9&#45;&gt;8 -->
<g id="edge10" class="edge">
<title>9&#45;&gt;8</title>
<path fill="none" stroke="black" d="M2587.19,-22C2615.68,-22 2672.83,-22 2706.79,-22"/>
<polygon fill="black" stroke="black" points="2706.94,-25.5 2716.94,-22 2706.94,-18.5 2706.94,-25.5"/>
<text text-anchor="middle" x="2651.95" y="-25.8" font-family="Times,serif" font-size="14.00">age:NEGATIVE/1</text>
</g>
<!-- 10 -->
<g id="node13" class="node">
<title>10</title>
<ellipse fill="none" stroke="black" cx="2403.45" cy="-22" rx="19.5" ry="19.5"/>
<text text-anchor="middle" x="2403.45" y="-18.3" font-family="Times,serif" font-size="14.00">10</text>
</g>
<!-- 10&#45;&gt;9 -->
<g id="edge11" class="edge">
<title>10&#45;&gt;9</title>
<path fill="none" stroke="black" d="M2423.21,-22C2451.99,-22 2507.22,-22 2540.51,-22"/>
<polygon fill="black" stroke="black" points="2540.89,-25.5 2550.89,-22 2540.89,-18.5 2540.89,-25.5"/>
<text text-anchor="middle" x="2486.95" y="-25.8" font-family="Times,serif" font-size="14.00">the:NEGATIVE/1</text>
</g>
<!-- 11 -->
<g id="node14" class="node">
<title>11</title>
<ellipse fill="none" stroke="black" cx="2231.45" cy="-22" rx="19.5" ry="19.5"/>
<text text-anchor="middle" x="2231.45" y="-18.3" font-family="Times,serif" font-size="14.00">11</text>
</g>
<!-- 11&#45;&gt;10 -->
<g id="edge12" class="edge">
<title>11&#45;&gt;10</title>
<path fill="none" stroke="black" d="M2250.97,-22C2280.53,-22 2338.6,-22 2373.62,-22"/>
<polygon fill="black" stroke="black" points="2373.7,-25.5 2383.7,-22 2373.7,-18.5 2373.7,-25.5"/>
<text text-anchor="middle" x="2317.45" y="-25.8" font-family="Times,serif" font-size="14.00">was:NEGATIVE/1</text>
</g>
<!-- 12 -->
<g id="node15" class="node">
<title>12</title>
<ellipse fill="none" stroke="black" cx="2073.46" cy="-22" rx="19.5" ry="19.5"/>
<text text-anchor="middle" x="2073.46" y="-18.3" font-family="Times,serif" font-size="14.00">12</text>
</g>
<!-- 12&#45;&gt;11 -->
<g id="edge13" class="edge">
<title>12&#45;&gt;11</title>
<path fill="none" stroke="black" d="M2092.96,-22C2119.79,-22 2169.74,-22 2201.48,-22"/>
<polygon fill="black" stroke="black" points="2201.48,-25.5 2211.48,-22 2201.48,-18.5 2201.48,-25.5"/>
<text text-anchor="middle" x="2152.46" y="-25.8" font-family="Times,serif" font-size="14.00">it:NEGATIVE/1</text>
</g>
<!-- 13 -->
<g id="node16" class="node">
<title>13</title>
<ellipse fill="none" stroke="black" cx="1889.46" cy="-22" rx="19.5" ry="19.5"/>
<text text-anchor="middle" x="1889.46" y="-18.3" font-family="Times,serif" font-size="14.00">13</text>
</g>
<!-- 13&#45;&gt;12 -->
<g id="edge14" class="edge">
<title>13&#45;&gt;12</title>
<path fill="none" stroke="black" d="M1909.25,-22C1941.08,-22 2005.78,-22 2043.46,-22"/>
<polygon fill="black" stroke="black" points="2043.77,-25.5 2053.77,-22 2043.77,-18.5 2043.77,-25.5"/>
<text text-anchor="middle" x="1981.46" y="-25.8" font-family="Times,serif" font-size="14.00">times:POSITIVE/0.2</text>
</g>
<!-- 14 -->
<g id="node17" class="node">
<title>14</title>
<ellipse fill="none" stroke="black" cx="1723.46" cy="-22" rx="19.5" ry="19.5"/>
<text text-anchor="middle" x="1723.46" y="-18.3" font-family="Times,serif" font-size="14.00">14</text>
</g>
<!-- 14&#45;&gt;13 -->
<g id="edge15" class="edge">
<title>14&#45;&gt;13</title>
<path fill="none" stroke="black" d="M1743.28,-22C1771.82,-22 1826.29,-22 1859.79,-22"/>
<polygon fill="black" stroke="black" points="1859.87,-25.5 1869.87,-22 1859.87,-18.5 1859.87,-25.5"/>
<text text-anchor="middle" x="1806.46" y="-25.8" font-family="Times,serif" font-size="14.00">of:POSITIVE/0.2</text>
</g>
<!-- 15 -->
<g id="node18" class="node">
<title>15</title>
<ellipse fill="none" stroke="black" cx="1539.47" cy="-22" rx="19.5" ry="19.5"/>
<text text-anchor="middle" x="1539.47" y="-18.3" font-family="Times,serif" font-size="14.00">15</text>
</g>
<!-- 15&#45;&gt;14 -->
<g id="edge16" class="edge">
<title>15&#45;&gt;14</title>
<path fill="none" stroke="black" d="M1559.26,-22C1591.08,-22 1655.79,-22 1693.47,-22"/>
<polygon fill="black" stroke="black" points="1693.77,-25.5 1703.77,-22 1693.77,-18.5 1693.77,-25.5"/>
<text text-anchor="middle" x="1631.47" y="-25.8" font-family="Times,serif" font-size="14.00">worst:POSITIVE/0.2</text>
</g>
<!-- 16 -->
<g id="node19" class="node">
<title>16</title>
<ellipse fill="none" stroke="black" cx="1372.47" cy="-22" rx="19.5" ry="19.5"/>
<text text-anchor="middle" x="1372.47" y="-18.3" font-family="Times,serif" font-size="14.00">16</text>
</g>
<!-- 16&#45;&gt;15 -->
<g id="edge17" class="edge">
<title>16&#45;&gt;15</title>
<path fill="none" stroke="black" d="M1392.08,-22C1420.67,-22 1475.65,-22 1509.49,-22"/>
<polygon fill="black" stroke="black" points="1509.68,-25.5 1519.68,-22 1509.68,-18.5 1509.68,-25.5"/>
<text text-anchor="middle" x="1455.97" y="-25.8" font-family="Times,serif" font-size="14.00">the:NEGATIVE/1</text>
</g>
<!-- 17 -->
<g id="node20" class="node">
<title>17</title>
<ellipse fill="none" stroke="black" cx="1200.47" cy="-22" rx="19.5" ry="19.5"/>
<text text-anchor="middle" x="1200.47" y="-18.3" font-family="Times,serif" font-size="14.00">17</text>
</g>
<!-- 17&#45;&gt;16 -->
<g id="edge18" class="edge">
<title>17&#45;&gt;16</title>
<path fill="none" stroke="black" d="M1219.99,-22C1249.55,-22 1307.62,-22 1342.64,-22"/>
<polygon fill="black" stroke="black" points="1342.72,-25.5 1352.72,-22 1342.72,-18.5 1342.72,-25.5"/>
<text text-anchor="middle" x="1286.47" y="-25.8" font-family="Times,serif" font-size="14.00">was:NEGATIVE/1</text>
</g>
<!-- 18 -->
<g id="node21" class="node">
<title>18</title>
<ellipse fill="none" stroke="black" cx="1042.48" cy="-22" rx="19.5" ry="19.5"/>
<text text-anchor="middle" x="1042.48" y="-18.3" font-family="Times,serif" font-size="14.00">18</text>
</g>
<!-- 18&#45;&gt;17 -->
<g id="edge19" class="edge">
<title>18&#45;&gt;17</title>
<path fill="none" stroke="black" d="M1061.98,-22C1088.81,-22 1138.76,-22 1170.5,-22"/>
<polygon fill="black" stroke="black" points="1170.5,-25.5 1180.5,-22 1170.5,-18.5 1170.5,-25.5"/>
<text text-anchor="middle" x="1121.48" y="-25.8" font-family="Times,serif" font-size="14.00">it:NEGATIVE/1</text>
</g>
<!-- 19 -->
<g id="node22" class="node">
<title>19</title>
<ellipse fill="none" stroke="black" cx="858.48" cy="-22" rx="19.5" ry="19.5"/>
<text text-anchor="middle" x="858.48" y="-18.3" font-family="Times,serif" font-size="14.00">19</text>
</g>
<!-- 19&#45;&gt;18 -->
<g id="edge20" class="edge">
<title>19&#45;&gt;18</title>
<path fill="none" stroke="black" d="M878.27,-22C910.1,-22 974.8,-22 1012.48,-22"/>
<polygon fill="black" stroke="black" points="1012.79,-25.5 1022.79,-22 1012.79,-18.5 1012.79,-25.5"/>
<text text-anchor="middle" x="950.48" y="-25.8" font-family="Times,serif" font-size="14.00">times:POSITIVE/0.2</text>
</g>
<!-- 20 -->
<g id="node23" class="node">
<title>20</title>
<ellipse fill="none" stroke="black" cx="692.48" cy="-22" rx="19.5" ry="19.5"/>
<text text-anchor="middle" x="692.48" y="-18.3" font-family="Times,serif" font-size="14.00">20</text>
</g>
<!-- 20&#45;&gt;19 -->
<g id="edge21" class="edge">
<title>20&#45;&gt;19</title>
<path fill="none" stroke="black" d="M712.3,-22C740.84,-22 795.31,-22 828.81,-22"/>
<polygon fill="black" stroke="black" points="828.89,-25.5 838.89,-22 828.89,-18.5 828.89,-25.5"/>
<text text-anchor="middle" x="775.48" y="-25.8" font-family="Times,serif" font-size="14.00">of:POSITIVE/0.2</text>
</g>
<!-- 21 -->
<g id="node24" class="node">
<title>21</title>
<ellipse fill="none" stroke="black" cx="516.49" cy="-22" rx="19.5" ry="19.5"/>
<text text-anchor="middle" x="516.49" y="-18.3" font-family="Times,serif" font-size="14.00">21</text>
</g>
<!-- 21&#45;&gt;20 -->
<g id="edge22" class="edge">
<title>21&#45;&gt;20</title>
<path fill="none" stroke="black" d="M536.11,-22C566.38,-22 626.48,-22 662.42,-22"/>
<polygon fill="black" stroke="black" points="662.73,-25.5 672.73,-22 662.73,-18.5 662.73,-25.5"/>
<text text-anchor="middle" x="604.49" y="-25.8" font-family="Times,serif" font-size="14.00">best:POSITIVE/0.2</text>
</g>
<!-- 22&#45;&gt;21 -->
<g id="edge23" class="edge">
<title>22&#45;&gt;21</title>
<path fill="none" stroke="black" d="M369.1,-22C397.69,-22 452.67,-22 486.51,-22"/>
<polygon fill="black" stroke="black" points="486.7,-25.5 496.7,-22 486.7,-18.5 486.7,-25.5"/>
<text text-anchor="middle" x="432.99" y="-25.8" font-family="Times,serif" font-size="14.00">the:NEGATIVE/1</text>
</g>
</g>
</svg>
